<svg width="288" height="330" viewBox="0 0 288 330" fill="none" xmlns="http://www.w3.org/2000/svg">
<circle name="circle_" cx="141.443" cy="97.5" r="93.5" fill="url(#paint0_radial_9_2)"/>
<path d="M84.1658 102.575C88.8451 97.3642 90.0149 91.2055 91.3797 84.81C97.6836 82.2834 107.25 80.4515 95.084 93.3374C79.8765 109.445 93.1344 109.208 91.3797 112.287C89.625 115.367 79.4866 107.787 84.1658 102.575Z" fill="#855750"/>
<path d="M95.9416 132.258C108.771 124.921 105.957 125.158 113.564 113.011C127.285 112.351 121.207 113.711 118.525 120.654C98.9842 171.256 107.263 149.817 96.6185 156.89C90.5294 160.936 83.1123 139.595 95.9416 132.258Z" fill="#75453D"/>
<path d="M101.826 176.17C105.206 178.254 106.051 180.718 107.036 183.276C111.589 184.287 118.498 185.019 109.712 179.865C98.7284 173.422 108.304 173.517 107.036 172.285C105.769 171.053 98.4468 174.085 101.826 176.17Z" fill="#855750"/>
<path d="M175.805 114.475C182.665 113.062 185.179 111.835 190.076 107.5C196.648 109.211 207.517 110.386 190.076 113.527C168.274 117.454 165.184 124.065 161.943 125.5C158.703 126.935 168.945 115.888 175.805 114.475Z" fill="#855750"/>
<path d="M123.598 17.1731C130.457 15.7596 132.972 14.5329 137.868 10.1981C144.44 11.9094 155.309 13.084 137.868 16.2254C116.067 20.1521 112.976 26.7629 109.736 28.1981C106.495 29.6334 116.738 18.5866 123.598 17.1731Z" fill="#855750"/>
<path d="M167.65 145.349C182.329 147.066 179.924 145.586 193.258 140.331C204.69 147.949 198.992 145.433 192.71 149.427C146.936 178.531 186.208 153.632 173.443 153C166.141 152.639 152.971 143.632 167.65 145.349Z" fill="#75453D"/>
<path d="M135.909 144.487C127.063 143.833 115.786 143.555 115.605 154.428C113.705 161.031 112.802 165.818 127.55 156.515C149.437 142.709 141.416 158.935 146.876 150.509C148.58 147.879 148.143 145.392 135.909 144.487Z" fill="#855750"/>
<path d="M206.086 70.5178C207.822 73.6852 210.727 75.6886 213.713 77.8289C213.765 80.9749 212.825 85.2494 208.65 77.1795C203.431 67.0922 200.957 72.4418 199.733 70.9733C198.51 69.5048 204.351 67.3504 206.086 70.5178Z" fill="#855750"/>
<path d="M188.717 67.995C189.859 75.0696 190.303 73.8589 194.932 79.9909C192.512 85.7719 193.043 82.9456 190.063 80.1226C168.345 59.5499 177.546 68.2663 176.099 62.1513C175.271 58.6534 187.574 60.9203 188.717 67.995Z" fill="#75453D"/>
<path d="M165.507 59.377C163.728 60.242 162.266 59.9594 160.726 59.7108C159.272 61.3379 157.484 64.0128 161.969 61.6955C167.575 58.799 165.58 62.7425 166.483 62.5337C167.385 62.3249 167.285 58.5119 165.507 59.377Z" fill="#855750"/>
<path d="M130.934 38.1218C136.249 40.3503 141.363 39.6226 146.715 38.9826C150.371 43.1739 154.359 50.0642 141.058 44.0945C124.431 36.6325 128.163 46.7906 125.293 46.2526C122.423 45.7146 125.619 35.8932 130.934 38.1218Z" fill="#855750"/>
<path d="M110.944 55.0534C120.097 63.0025 119.159 60.8961 130.664 63.5461C134.851 73.9497 132.164 69.6235 126.033 69.3935C81.3544 67.7172 100.284 68.4274 91.9213 62.0925C87.1377 58.4688 101.791 47.1043 110.944 55.0534Z" fill="#75453D"/>
<path d="M78.2841 71.2083C77.5633 74.3651 75.8688 75.6682 74.1381 77.1049C74.5684 80.8822 75.8458 86.4024 77.5132 78.2649C79.5974 68.0931 82.0856 75.4998 82.7068 74.1969C83.328 72.8941 79.005 68.0515 78.2841 71.2083Z" fill="#855750"/>
<path d="M146.177 111.916C149.115 116.831 150.744 118.444 155.433 121.072C155.858 126.592 157.85 135.281 150.734 122.667C141.84 106.899 135.859 106.266 133.873 104.147C131.887 102.029 143.24 107.002 146.177 111.916Z" fill="#855750"/>
<path d="M208.066 45.9243C211.004 50.8385 212.633 52.4524 217.323 55.0802C217.747 60.5997 219.739 69.2894 212.624 56.675C203.729 40.907 197.748 40.2736 195.762 38.1551C193.776 36.0366 205.129 41.0101 208.066 45.9243Z" fill="#855750"/>
<path d="M210.879 110.399C213.816 115.313 215.445 116.927 220.135 119.555C220.559 125.074 222.552 133.764 215.436 121.15C206.541 105.382 200.561 104.748 198.575 102.63C196.589 100.511 207.941 105.485 210.879 110.399Z" fill="#855750"/>
<path d="M187.879 49.3989C190.816 54.3131 192.445 55.927 197.135 58.5548C197.559 64.0743 199.552 72.764 192.436 60.1496C183.541 44.3816 177.561 43.7482 175.575 41.6297C173.589 39.5113 184.941 44.4847 187.879 49.3989Z" fill="#855750"/>
<path d="M119.925 113.798C122.514 125.569 123.025 123.323 130.689 132.212C127.809 143.041 128.246 137.982 123.451 134.197C88.513 106.609 118.433 130.297 115.51 120.289C113.838 114.564 117.336 102.027 119.925 113.798Z" fill="#75453D"/>
<path d="M171.013 58.4662C164.581 55.0295 156.193 51.062 152.389 59.088C148.734 63.3651 146.44 66.6235 160.67 64.6234C181.787 61.6552 170.282 71.048 177.23 66.6018C179.399 65.2143 179.909 63.2193 171.013 58.4662Z" fill="#855750"/>
<path d="M188.549 123.63C186.544 125.806 185.759 128.576 184.89 131.445C182.451 132.317 178.867 132.723 184.041 127.369C190.509 120.677 185.677 120.185 186.494 118.853C187.312 117.522 190.554 121.454 188.549 123.63Z" fill="#855750"/>
<path d="M185.868 109.572C180.659 112.325 181.721 112.347 178.179 117.538C173.025 117.202 175.37 116.863 176.774 113.819C187.002 91.6331 182.668 101.033 187.048 98.2992C189.554 96.7355 191.078 106.82 185.868 109.572Z" fill="#75453D"/>
<path d="M186.377 89.3992C185.227 88.257 185.056 87.0552 184.837 85.8021C183.18 85.1113 180.616 84.4408 183.623 87.2853C187.381 90.841 183.773 90.3461 184.177 90.9867C184.581 91.6274 187.527 90.5414 186.377 89.3992Z" fill="#855750"/>
<path d="M115.562 142.822C86.7106 124.738 51.893 128.639 38.0907 132.849C23.3979 139.609 6.58756 144.725 0.443287 178.5C-7.23705 220.718 87.1781 204.654 105.878 278.453C124.578 352.251 191.03 328.982 196.706 316.017C202.383 303.052 191.03 287.761 257.815 247.537C324.601 207.313 261.154 153.128 249.801 128.86C238.447 104.593 208.06 109.912 196.706 145.814C185.353 181.716 151.626 165.427 115.562 142.822Z" fill="url(#paint1_radial_9_2)"/>
<defs>
<radialGradient id="paint0_radial_9_2" cx="0" cy="0" r="1" gradientUnits="userSpaceOnUse" gradientTransform="translate(85.9434 31.5) rotate(48.2519) scale(186.977)">
<stop stop-color="#DFC1BD"/>
<stop offset="0.260417" stop-color="#70453E" stop-opacity="0.67"/>
<stop offset="0.421875" stop-color="#6A3E37" stop-opacity="0.71"/>
<stop offset="0.583333" stop-color="#6A3E37" stop-opacity="0.81"/>
<stop offset="0.791667" stop-color="#6A3E37" stop-opacity="0.85"/>
<stop offset="1" stop-color="#6A3E37"/>
</radialGradient>
<radialGradient id="paint1_radial_9_2" cx="0" cy="0" r="1" gradientUnits="userSpaceOnUse" gradientTransform="translate(74.4434 133) rotate(58.4884) scale(215.241 300.938)">
<stop stop-color="white"/>
<stop offset="0.34375" stop-color="#FDFFF5" stop-opacity="0.9"/>
<stop offset="0.661458" stop-color="#FDFFF5" stop-opacity="0.95"/>
<stop offset="1" stop-color="#FDFFF5"/>
</radialGradient>
</defs>
</svg>
