<svg width="234" height="236" viewBox="0 0 234 236" fill="none" xmlns="http://www.w3.org/2000/svg">
<circle cx="117.545" cy="120.056" r="93.5" transform="rotate(-15.9923 117.545 120.056)" fill="url(#paint0_radial_10_51)"/>
<path d="M63.8823 140.715C66.9448 134.416 66.3725 128.174 65.9225 121.65C71.2863 117.484 79.9778 113.087 71.8328 128.826C61.6515 148.5 74.3311 144.62 73.4926 148.063C72.6542 151.507 60.8199 147.014 63.8823 140.715Z" fill="#855750"/>
<path d="M83.38 166.004C93.6915 155.417 91.0519 156.42 95.0174 142.647C108.026 138.232 102.558 141.214 101.893 148.628C97.0491 202.655 99.1014 179.765 90.8171 189.497C86.0784 195.064 73.0686 176.592 83.38 166.004Z" fill="#75453D"/>
<path d="M101.135 206.596C104.958 207.668 106.449 209.804 108.101 211.991C112.756 211.709 119.6 210.509 109.733 207.975C97.4001 204.808 106.631 202.261 105.073 201.426C103.516 200.591 97.3121 205.523 101.135 206.596Z" fill="#855750"/>
<path d="M155.253 126.907C161.458 123.658 163.537 121.786 167.05 116.27C173.839 116.104 184.611 114.239 168.711 122.064C148.835 131.845 147.685 139.052 144.966 141.324C142.246 143.597 149.049 130.155 155.253 126.907Z" fill="#855750"/>
<path d="M78.2589 47.7541C84.4636 44.5055 86.5429 42.6335 90.0555 37.1174C96.8449 36.9518 107.617 35.0865 91.7161 42.9114C71.8404 52.6926 70.6909 59.899 67.9712 62.1715C65.2514 64.444 72.0542 51.0028 78.2589 47.7541Z" fill="#855750"/>
<path d="M155.92 158.833C170.504 156.439 167.784 155.679 179.154 146.953C192.243 151.127 186.072 150.279 181.134 155.848C145.149 196.438 176.042 161.682 163.597 164.591C156.478 166.256 141.336 161.227 155.92 158.833Z" fill="#75453D"/>
<path d="M125.17 166.749C116.486 168.557 105.569 171.397 108.39 181.899C108.384 188.77 108.834 193.62 120.448 180.614C137.685 161.312 134.445 179.121 137.371 169.516C138.285 166.519 137.18 164.249 125.17 166.749Z" fill="#855750"/>
<path d="M172.252 76.308C174.793 78.8746 178.137 80.0003 181.598 81.2349C182.515 84.2448 182.789 88.6128 176.552 82.0056C168.756 73.7467 167.851 79.5708 166.271 78.4962C164.69 77.4215 169.711 73.7413 172.252 76.308Z" fill="#855750"/>
<path d="M154.859 78.6684C157.907 85.1545 158.001 83.8681 164.139 88.4877C163.406 94.7117 163.137 91.8485 159.495 89.9558C132.95 76.1627 144.196 82.0066 141.121 76.527C139.361 73.3926 151.812 72.1822 154.859 78.6684Z" fill="#75453D"/>
<path d="M130.174 76.7783C128.702 78.0998 127.219 78.2309 125.67 78.4163C124.72 80.3811 123.739 83.4451 127.412 79.9818C132.003 75.6527 131.171 79.9934 131.982 79.544C132.792 79.0946 131.645 75.4567 130.174 76.7783Z" fill="#855750"/>
<path d="M91.083 65.8707C96.806 66.5487 101.522 64.4401 106.49 62.3506C111.16 65.3723 116.891 70.8972 102.46 68.8232C84.4212 66.2308 90.8075 74.9675 87.9001 75.241C84.9928 75.5146 85.3599 65.1927 91.083 65.8707Z" fill="#855750"/>
<path d="M76.5313 87.6545C87.5199 92.7744 86.0379 91.0078 97.8283 90.3854C104.719 99.233 100.944 95.8145 94.9871 97.2825C51.5758 107.98 69.9685 103.448 60.1841 99.6621C54.5873 97.4966 65.5428 82.5347 76.5313 87.6545Z" fill="#75453D"/>
<path d="M49.5864 112.182C49.7632 115.416 48.4933 117.135 47.2254 118.993C48.6797 122.506 51.4285 127.46 50.7894 119.178C49.9906 108.826 54.4231 115.26 54.6613 113.837C54.8995 112.413 49.4096 108.949 49.5864 112.182Z" fill="#855750"/>
<path d="M126.067 132.61C130.245 136.525 132.256 137.627 137.488 138.861C139.416 144.05 143.726 151.855 133.41 141.689C120.515 128.982 114.592 130.021 112.099 128.531C109.606 127.042 121.89 128.695 126.067 132.61Z" fill="#855750"/>
<path d="M167.38 52.1208C171.557 56.0355 173.568 57.1381 178.8 58.3722C180.729 63.5612 185.038 71.3656 174.723 61.1999C161.828 48.4927 155.904 49.5316 153.411 48.0422C150.918 46.5529 163.202 48.2061 167.38 52.1208Z" fill="#855750"/>
<path d="M187.847 113.325C192.024 117.24 194.035 118.343 199.267 119.577C201.196 124.766 205.505 132.57 195.19 122.404C182.295 109.697 176.371 110.736 173.878 109.247C171.385 107.757 183.669 109.411 187.847 113.325Z" fill="#855750"/>
<path d="M148.931 61.0228C153.108 64.9375 155.119 66.0401 160.351 67.2742C162.28 72.4631 166.589 80.2676 156.274 70.1018C143.379 57.3946 137.455 58.4335 134.962 56.9442C132.469 55.4549 144.753 57.108 148.931 61.0228Z" fill="#855750"/>
<path d="M101.349 141.651C107.081 152.253 106.953 149.954 116.771 156.387C116.985 167.59 116.011 162.607 110.359 160.289C69.1725 143.395 104.461 157.922 98.8939 149.107C95.7093 144.065 95.6175 131.05 101.349 141.651Z" fill="#75453D"/>
<path d="M135.216 74.3859C128.086 72.8543 118.93 71.3512 117.484 80.1145C115.149 85.2331 113.842 88.9973 126.969 83.1544C146.452 74.4829 137.98 86.682 143.434 80.4936C145.136 78.5624 145.077 76.5041 135.216 74.3859Z" fill="#855750"/>
<path d="M170.027 132.197C168.699 134.841 168.707 137.719 168.662 140.717C166.558 142.227 163.225 143.605 166.723 137.033C171.097 128.817 166.316 129.676 166.735 128.171C167.154 126.665 171.354 129.552 170.027 132.197Z" fill="#855750"/>
<path d="M163.576 119.421C159.326 123.502 160.354 123.231 158.379 129.197C153.332 130.294 155.493 129.322 156.004 126.009C159.723 101.864 158.147 112.094 161.605 108.259C163.583 106.066 167.826 115.34 163.576 119.421Z" fill="#75453D"/>
<path d="M158.507 99.8888C157.087 99.1077 156.592 97.9995 156.037 96.855C154.253 96.6476 151.603 96.7094 155.277 98.6155C159.87 100.998 156.265 101.516 156.83 102.021C157.395 102.525 159.928 100.67 158.507 99.8888Z" fill="#855750"/>
<circle cx="118.139" cy="114.467" r="93.5" transform="rotate(10.4088 118.139 114.467)" fill="url(#paint1_radial_10_51)"/>
<path d="M60.8869 109.111C66.4306 104.831 68.6939 98.9847 71.1917 92.941C77.8484 91.5949 87.5883 91.5216 73.2944 101.997C55.427 115.092 68.5095 117.254 66.2273 119.966C63.9452 122.678 55.3431 113.391 60.8869 109.111Z" fill="#855750"/>
<path d="M67.106 140.432C81.0497 135.534 78.2393 135.259 87.9153 124.686C101.531 126.515 95.3062 126.755 91.4144 133.1C63.0526 179.338 75.069 159.748 63.3213 164.781C56.6014 167.661 53.1622 145.331 67.106 140.432Z" fill="#75453D"/>
<path d="M64.9603 184.685C67.9075 187.346 68.2934 189.921 68.8007 192.615C73.096 194.432 79.759 196.401 72.0483 189.744C62.4099 181.423 71.8103 183.246 70.7864 181.805C69.7625 180.365 62.0131 182.024 64.9603 184.685Z" fill="#855750"/>
<path d="M148.868 137.371C155.87 137.22 158.565 136.468 164.164 133.089C170.319 135.96 180.797 139.079 163.075 139.017C140.923 138.94 136.689 144.884 133.243 145.71C129.796 146.536 141.866 137.522 148.868 137.371Z" fill="#855750"/>
<path d="M115.099 32.2379C122.101 32.0871 124.796 31.3348 130.395 27.956C136.55 30.8265 147.028 33.9455 129.306 33.8841C107.154 33.8074 102.92 39.751 99.4738 40.5772C96.0273 41.4033 108.097 32.3888 115.099 32.2379Z" fill="#855750"/>
<path d="M135.269 166.264C149.396 170.604 147.298 168.714 161.363 165.954C171.23 175.513 166.08 172.009 159.18 174.802C108.901 195.157 152.026 177.763 139.585 174.835C132.468 173.161 121.142 161.923 135.269 166.264Z" fill="#75453D"/>
<path d="M104.206 159.681C95.6239 157.44 84.5829 155.129 82.4399 165.79C79.379 171.941 77.6257 176.486 93.8116 170.001C117.833 160.376 107.012 174.887 113.905 167.585C116.055 165.306 116.075 162.782 104.206 159.681Z" fill="#855750"/>
<path d="M186.593 99.6081C187.728 103.037 190.222 105.532 192.774 108.177C192.256 111.28 190.559 115.315 187.911 106.623C184.6 95.7591 181.2 100.574 180.262 98.9084C179.324 97.243 185.458 96.1792 186.593 99.6081Z" fill="#855750"/>
<path d="M169.965 93.9885C169.81 101.153 170.466 100.043 173.91 106.91C170.486 112.159 171.519 109.475 169.098 106.16C151.454 82.002 158.929 92.2373 158.611 85.9615C158.429 82.3715 170.119 86.8239 169.965 93.9885Z" fill="#75453D"/>
<path d="M148.694 81.3191C146.788 81.8486 145.401 81.3065 143.932 80.7837C142.207 82.1212 139.965 84.4291 144.795 82.9603C150.833 81.1243 148.158 84.6425 149.083 84.6002C150.009 84.5579 150.599 80.7896 148.694 81.3191Z" fill="#855750"/>
<path d="M118.53 54.1673C123.355 57.3194 128.517 57.5277 133.896 57.865C136.735 62.648 139.412 70.1454 127.408 61.8708C112.403 51.5277 114.239 62.1928 111.513 61.1451C108.787 60.0974 113.706 51.0153 118.53 54.1673Z" fill="#855750"/>
<path d="M95.8101 67.2088C103.376 76.6807 102.834 74.4395 113.672 79.1246C115.909 90.1134 114.048 85.3729 108.06 84.039C64.4194 74.3182 82.9092 78.4367 75.8287 70.6952C71.7785 66.2668 88.2442 57.7368 95.8101 67.2088Z" fill="#75453D"/>
<path d="M60.769 77.1971C59.4897 80.1717 57.5876 81.1472 55.6258 82.2476C55.3666 86.0405 55.6256 91.7006 58.7358 83.9983C62.6235 74.3704 63.7325 82.1048 64.5789 80.9356C65.4253 79.7664 62.0484 74.2225 60.769 77.1971Z" fill="#855750"/>
<path d="M120.19 129.502C122.191 134.866 123.502 136.747 127.64 140.179C127.06 145.685 127.45 154.591 122.73 140.899C116.83 123.783 111.063 122.08 109.492 119.637C107.921 117.195 118.189 124.138 120.19 129.502Z" fill="#855750"/>
<path d="M192.984 75.777C194.985 81.141 196.296 83.0227 200.433 86.4546C199.853 91.9599 200.243 100.867 195.523 87.1741C189.624 70.0586 183.856 68.3551 182.285 65.9126C180.715 63.4702 190.982 70.413 192.984 75.777Z" fill="#855750"/>
<path d="M184.101 139.699C186.102 145.063 187.413 146.944 191.551 150.376C190.971 155.882 191.36 164.788 186.641 151.096C180.741 133.98 174.973 132.277 173.403 129.834C171.832 127.392 182.1 134.335 184.101 139.699Z" fill="#855750"/>
<path d="M172.5 75.5471C174.502 80.9112 175.812 82.7929 179.95 86.2247C179.37 91.73 179.76 100.637 175.04 86.9443C169.141 69.8287 163.373 68.1252 161.802 65.6828C160.232 63.2404 170.499 70.1831 172.5 75.5471Z" fill="#855750"/>
<path d="M94.0297 126.609C94.4496 138.654 95.3576 136.538 101.29 146.665C96.5007 156.795 97.8441 151.899 93.8127 147.309C64.4337 113.863 89.582 142.567 88.5151 132.195C87.9049 126.263 93.6097 114.565 94.0297 126.609Z" fill="#75453D"/>
<path d="M154.274 81.4181C148.568 76.8758 141.036 71.4582 135.845 78.6649C131.477 82.2112 128.632 85.0015 142.988 85.6053C164.295 86.5012 151.282 93.6608 158.919 90.5431C161.302 89.5702 162.165 87.7002 154.274 81.4181Z" fill="#855750"/>
<path d="M159.748 148.678C157.383 150.456 156.111 153.038 154.738 155.703C152.181 156.12 148.583 155.872 154.639 151.541C162.21 146.127 157.546 144.771 158.59 143.609C159.635 142.447 162.113 146.9 159.748 148.678Z" fill="#855750"/>
<path d="M159.651 134.367C154.03 136.133 155.071 136.347 150.65 140.812C145.641 139.55 148.009 139.641 149.939 136.901C164.007 116.928 158.047 125.39 162.849 123.493C165.595 122.407 165.273 132.601 159.651 134.367Z" fill="#75453D"/>
<path d="M163.796 114.618C162.871 113.287 162.921 112.074 162.932 110.802C161.427 109.823 159.026 108.7 161.469 112.041C164.524 116.217 161.064 115.079 161.346 115.782C161.628 116.485 164.721 115.949 163.796 114.618Z" fill="#855750"/>
<defs>
<radialGradient id="paint0_radial_10_51" cx="0" cy="0" r="1" gradientUnits="userSpaceOnUse" gradientTransform="translate(62.0448 54.0556) rotate(48.2519) scale(186.977)">
<stop stop-color="#6C4039" stop-opacity="0.71"/>
<stop offset="0.260417" stop-color="#70453E" stop-opacity="0.67"/>
<stop offset="0.421875" stop-color="#6A3E37" stop-opacity="0.71"/>
<stop offset="0.583333" stop-color="#6A3E37" stop-opacity="0.81"/>
<stop offset="0.791667" stop-color="#6A3E37" stop-opacity="0.85"/>
<stop offset="1" stop-color="#6A3E37"/>
</radialGradient>
<radialGradient id="paint1_radial_10_51" cx="0" cy="0" r="1" gradientUnits="userSpaceOnUse" gradientTransform="translate(62.6387 48.4672) rotate(48.2519) scale(186.977)">
<stop stop-color="#6C4039" stop-opacity="0.71"/>
<stop offset="0.260417" stop-color="#70453E" stop-opacity="0.67"/>
<stop offset="0.421875" stop-color="#6A3E37" stop-opacity="0.71"/>
<stop offset="0.583333" stop-color="#6A3E37" stop-opacity="0.81"/>
<stop offset="0.791667" stop-color="#6A3E37" stop-opacity="0.85"/>
<stop offset="1" stop-color="#6A3E37"/>
</radialGradient>
</defs>
</svg>
